<svg width="49" height="49" viewBox="0 0 49 49" fill="none" xmlns="http://www.w3.org/2000/svg">
<path d="M14.436 30.4659H35.7871M14.0917 26.4482H36.1316M36.8657 17.884L35.2581 36.6398C35.0803 38.7142 34.9913 39.7512 34.5303 40.5361C34.1243 41.2272 33.5216 41.7811 32.7983 42.1266C31.977 42.5189 30.936 42.519 28.854 42.519H21.3708C19.2888 42.519 18.2471 42.5189 17.4257 42.1266C16.7024 41.7811 16.0994 41.2272 15.6934 40.536C15.2324 39.7512 15.1435 38.7142 14.9657 36.6398L13.358 17.884C13.2543 16.6733 13.2024 16.0678 13.4062 15.6007C13.5853 15.1903 13.8963 14.8516 14.2899 14.6381C14.7379 14.3952 15.3455 14.3952 16.5606 14.3952H33.6638C34.8789 14.3952 35.4868 14.3952 35.9348 14.6381C36.3284 14.8516 36.6387 15.1903 36.8177 15.6007C37.0215 16.0678 36.9695 16.6733 36.8657 17.884ZM35.6528 14.3952H14.5714C12.7602 14.3952 11.8546 14.3952 11.3286 14.0161C10.8648 13.6819 10.5656 13.1659 10.5055 12.5974C10.4374 11.9526 10.8871 11.1664 11.7857 9.59387C12.457 8.41909 12.7926 7.83169 13.2637 7.40376C13.6848 7.02119 14.1823 6.73239 14.7234 6.55655C15.3287 6.35986 16.005 6.35986 17.3581 6.35986H32.8668C34.2198 6.35986 34.8963 6.35986 35.5016 6.55655C36.0427 6.73239 36.5398 7.02119 36.9609 7.40376C37.432 7.83169 37.7676 8.41909 38.4389 9.59387C39.3375 11.1664 39.787 11.9526 39.7189 12.5974C39.6588 13.1659 39.36 13.6819 38.8962 14.0161C38.3702 14.3952 37.464 14.3952 35.6528 14.3952Z" stroke="#FF7500" stroke-width="3" stroke-linecap="round" stroke-linejoin="round"/>
</svg>