<svg width="56" height="56" viewBox="0 0 56 56" fill="none" xmlns="http://www.w3.org/2000/svg">
<path d="M22.6424 2.21917C26.0728 0.79826 29.9272 0.798262 33.3576 2.21918L42.4414 5.98184C45.8718 7.40275 48.5973 10.1282 50.0182 13.5586L53.7808 22.6424C55.2017 26.0728 55.2017 29.9272 53.7808 33.3576L50.0182 42.4414C48.5972 45.8718 45.8718 48.5973 42.4414 50.0182L33.3576 53.7808C29.9272 55.2017 26.0728 55.2017 22.6424 53.7808L13.5586 50.0182C10.1282 48.5972 7.40275 45.8718 5.98183 42.4414L2.21917 33.3576C0.798259 29.9272 0.798262 26.0728 2.21918 22.6424L5.98183 13.5586C7.40275 10.1282 10.1282 7.40275 13.5586 5.98183L22.6424 2.21917Z" fill="#FF6B00"/>
<path d="M21.6999 31.75H34.9857M21.4857 29.25H35.2M35.6568 23.9209L34.6565 35.5917C34.5458 36.8825 34.4905 37.5278 34.2036 38.0161C33.951 38.4462 33.576 38.7909 33.1259 39.0059C32.6148 39.25 31.9671 39.25 30.6715 39.25H26.0151C24.7196 39.25 24.0714 39.25 23.5603 39.0059C23.1102 38.7909 22.735 38.4462 22.4824 38.0161C22.1955 37.5278 22.1402 36.8825 22.0295 35.5917L21.0292 23.9209C20.9646 23.1675 20.9323 22.7908 21.0592 22.5001C21.1706 22.2448 21.3641 22.034 21.609 21.9012C21.8878 21.75 22.2659 21.75 23.022 21.75H33.6644C34.4205 21.75 34.7988 21.75 35.0776 21.9012C35.3225 22.034 35.5155 22.2448 35.6269 22.5001C35.7538 22.7908 35.7214 23.1675 35.6568 23.9209ZM34.9021 21.75H21.7842C20.6572 21.75 20.0937 21.75 19.7664 21.5141C19.4777 21.3061 19.2916 20.9851 19.2542 20.6313C19.2118 20.2301 19.4916 19.7409 20.0508 18.7624C20.4685 18.0314 20.6774 17.6658 20.9705 17.3996C21.2325 17.1615 21.5421 16.9818 21.8788 16.8724C22.2554 16.75 22.6762 16.75 23.5182 16.75H33.1685C34.0104 16.75 34.4314 16.75 34.808 16.8724C35.1447 16.9818 35.454 17.1615 35.7161 17.3996C36.0092 17.6658 36.218 18.0314 36.6358 18.7624C37.1949 19.7409 37.4746 20.2301 37.4322 20.6313C37.3948 20.9851 37.2089 21.3061 36.9203 21.5141C36.593 21.75 36.0291 21.75 34.9021 21.75Z" stroke="white" stroke-width="2" stroke-linecap="round" stroke-linejoin="round"/>
</svg>
