<svg width="56" height="56" viewBox="0 0 56 56" fill="none" xmlns="http://www.w3.org/2000/svg">
<path d="M22.6424 2.21917C26.0728 0.79826 29.9272 0.798262 33.3576 2.21918L42.4414 5.98184C45.8718 7.40275 48.5973 10.1282 50.0182 13.5586L53.7808 22.6424C55.2017 26.0728 55.2017 29.9272 53.7808 33.3576L50.0182 42.4414C48.5972 45.8718 45.8718 48.5973 42.4414 50.0182L33.3576 53.7808C29.9272 55.2017 26.0728 55.2017 22.6424 53.7808L13.5586 50.0182C10.1282 48.5972 7.40275 45.8718 5.98183 42.4414L2.21917 33.3576C0.798259 29.9272 0.798262 26.0728 2.21918 22.6424L5.98183 13.5586C7.40275 10.1282 10.1282 7.40275 13.5586 5.98183L22.6424 2.21917Z" fill="#FF6B00"/>
<path d="M18 37C17.4477 37 17 37.4477 17 38C17 38.5523 17.4477 39 18 39V37ZM35.5 39C36.0523 39 36.5 38.5523 36.5 38C36.5 37.4477 36.0523 37 35.5 37V39ZM35.5 24.25V23.25C34.9477 23.25 34.5 23.6977 34.5 24.25H35.5ZM35.5 30.5H34.5C34.5 31.0523 34.9477 31.5 35.5 31.5V30.5ZM32.6444 17.1972C32.8914 16.7032 32.6912 16.1026 32.1972 15.8556C31.7032 15.6086 31.1026 15.8088 30.8556 16.3028L32.6444 17.1972ZM29.6056 18.8028C29.3586 19.2968 29.5588 19.8974 30.0528 20.1444C30.5468 20.3914 31.1474 20.1912 31.3944 19.6972L29.6056 18.8028ZM28.8944 17.1972C29.1414 16.7032 28.9412 16.1026 28.4472 15.8556C27.9532 15.6086 27.3526 15.8088 27.1056 16.3028L28.8944 17.1972ZM25.8556 18.8028C25.6086 19.2968 25.8088 19.8974 26.3028 20.1444C26.7968 20.3914 27.3974 20.1912 27.6444 19.6972L25.8556 18.8028ZM25.1444 17.1972C25.3914 16.7032 25.1912 16.1026 24.6972 15.8556C24.2032 15.6086 23.6026 15.8088 23.3556 16.3028L25.1444 17.1972ZM22.1056 18.8028C21.8586 19.2968 22.0588 19.8974 22.5528 20.1444C23.0468 20.3914 23.6474 20.1912 23.8944 19.6972L22.1056 18.8028ZM18 39H35.5V37H18V39ZM35.5 25.25H37.375V23.25H35.5V25.25ZM37.375 29.5H35.5V31.5H37.375V29.5ZM36.5 30.5V24.25H34.5V30.5H36.5ZM39.5 27.375C39.5 28.5486 38.5486 29.5 37.375 29.5V31.5C39.6532 31.5 41.5 29.6532 41.5 27.375H39.5ZM37.375 25.25C38.5486 25.25 39.5 26.2014 39.5 27.375H41.5C41.5 25.0968 39.6532 23.25 37.375 23.25V25.25ZM34.5 24.1539V29.25H36.5V24.1539H34.5ZM19 29.25V24.1539H17V29.25H19ZM19.1536 24H34.3459V22H19.1536V24ZM19 24.1539C19 24.0686 19.0689 24 19.1536 24V22C17.9637 22 17 22.9647 17 24.1539H19ZM26.75 37C22.4698 37 19 33.5302 19 29.25H17C17 34.6348 21.3652 39 26.75 39V37ZM34.5 29.25C34.5 33.5302 31.0302 37 26.75 37V39C32.1348 39 36.5 34.6348 36.5 29.25H34.5ZM36.5 24.1539C36.5 22.964 35.5351 22 34.3459 22V24C34.4311 24 34.5 24.0692 34.5 24.1539H36.5ZM30.8556 16.3028L29.6056 18.8028L31.3944 19.6972L32.6444 17.1972L30.8556 16.3028ZM27.1056 16.3028L25.8556 18.8028L27.6444 19.6972L28.8944 17.1972L27.1056 16.3028ZM23.3556 16.3028L22.1056 18.8028L23.8944 19.6972L25.1444 17.1972L23.3556 16.3028Z" fill="white"/>
</svg>
