<svg width="56" height="56" viewBox="0 0 56 56" fill="none" xmlns="http://www.w3.org/2000/svg">
<path d="M22.6424 2.21917C26.0728 0.79826 29.9272 0.798262 33.3576 2.21918L42.4414 5.98184C45.8718 7.40275 48.5973 10.1282 50.0182 13.5586L53.7808 22.6424C55.2017 26.0728 55.2017 29.9272 53.7808 33.3576L50.0182 42.4414C48.5972 45.8718 45.8718 48.5973 42.4414 50.0182L33.3576 53.7808C29.9272 55.2017 26.0728 55.2017 22.6424 53.7808L13.5586 50.0182C10.1282 48.5972 7.40275 45.8718 5.98183 42.4414L2.21917 33.3576C0.798259 29.9272 0.798262 26.0728 2.21918 22.6424L5.98183 13.5586C7.40275 10.1282 10.1282 7.40275 13.5586 5.98183L22.6424 2.21917Z" fill="#FF6B00"/>
<path d="M36.5624 19.3248L37.5602 19.2582C37.5269 18.7584 37.1288 18.3603 36.6289 18.327L36.5624 19.3248ZM21.5364 34.3507L20.6789 34.8652C20.7633 35.006 20.8811 35.1238 21.0219 35.2082L21.5364 34.3507ZM18.5429 35.9294C18.1524 36.3199 18.1524 36.953 18.5429 37.3436C18.9334 37.7341 19.5666 37.7341 19.9571 37.3436L18.5429 35.9294ZM27.0282 30.2725C27.4187 29.882 27.4187 29.2488 27.0282 28.8583C26.6377 28.4678 26.0045 28.4678 25.614 28.8583L27.0282 30.2725ZM35.5646 19.3913C35.9969 25.8758 34.4632 30.6162 31.9883 33.0912C30.7664 34.3131 29.305 34.9996 27.6718 35.1068C26.0272 35.2149 24.1285 34.7398 22.0509 33.4933L21.0219 35.2082C23.3637 36.6133 25.6634 37.2431 27.8029 37.1025C29.9539 36.9612 31.8622 36.0457 33.4025 34.5054C36.4518 31.4561 38.0117 26.0319 37.5602 19.2582L35.5646 19.3913ZM22.3939 33.8363C21.1473 31.7587 20.6722 29.8599 20.7803 28.2153C20.8876 26.5821 21.574 25.1207 22.7959 23.8988C25.2709 21.4239 30.0113 19.8902 36.4959 20.3225L36.6289 18.327C29.8553 17.8754 24.431 19.4353 21.3817 22.4846C19.8414 24.0249 18.9259 25.9333 18.7846 28.0842C18.644 30.2237 19.2738 32.5234 20.6789 34.8652L22.3939 33.8363ZM19.9571 37.3436L27.0282 30.2725L25.614 28.8583L18.5429 35.9294L19.9571 37.3436Z" fill="white"/>
</svg>
