<svg width="56" height="56" viewBox="0 0 56 56" fill="none" xmlns="http://www.w3.org/2000/svg">
<path d="M22.6424 2.21917C26.0728 0.79826 29.9272 0.798262 33.3576 2.21918L42.4414 5.98184C45.8718 7.40275 48.5973 10.1282 50.0182 13.5586L53.7808 22.6424C55.2017 26.0728 55.2017 29.9272 53.7808 33.3576L50.0182 42.4414C48.5972 45.8718 45.8718 48.5973 42.4414 50.0182L33.3576 53.7808C29.9272 55.2017 26.0728 55.2017 22.6424 53.7808L13.5586 50.0182C10.1282 48.5972 7.40275 45.8718 5.98183 42.4414L2.21917 33.3576C0.798259 29.9272 0.798262 26.0728 2.21918 22.6424L5.98183 13.5586C7.40275 10.1282 10.1282 7.40275 13.5586 5.98183L22.6424 2.21917Z" fill="#FF6B00"/>
<path d="M16.75 20.75C16.1977 20.75 15.75 21.1977 15.75 21.75C15.75 22.3023 16.1977 22.75 16.75 22.75V20.75ZM24.8323 22.7211L23.9748 23.2356L24.8323 22.7211ZM31.1671 33.2791L30.3096 33.7935L30.3096 33.7935L31.1671 33.2791ZM39.2504 35.25C39.8027 35.25 40.2504 34.8023 40.2504 34.25C40.2504 33.6977 39.8027 33.25 39.2504 33.25V35.25ZM31.6327 33.9387L30.9723 34.6896L31.6327 33.9387ZM32.0771 34.1908L32.3814 33.2382L32.0771 34.1908ZM23.9221 21.8092L24.2263 20.8566L23.9221 21.8092ZM24.3672 22.0613L23.7069 22.8123L24.3672 22.0613ZM31.75 20.75C31.1977 20.75 30.75 21.1977 30.75 21.75C30.75 22.3023 31.1977 22.75 31.75 22.75V20.75ZM39.25 22.75C39.8023 22.75 40.25 22.3023 40.25 21.75C40.25 21.1977 39.8023 20.75 39.25 20.75V22.75ZM16.75 22.75H23.1176V20.75H16.75V22.75ZM23.9748 23.2356L30.3096 33.7935L32.0246 32.7646L25.6898 22.2066L23.9748 23.2356ZM32.8828 35.25H39.2504V33.25H32.8828V35.25ZM30.3096 33.7935C30.4894 34.0932 30.6818 34.4342 30.9723 34.6896L32.293 33.1877C32.3044 33.1977 32.2946 33.1939 32.2499 33.1287C32.199 33.0542 32.1362 32.9506 32.0246 32.7646L30.3096 33.7935ZM32.8828 33.25C32.665 33.25 32.5438 33.2496 32.453 33.2443C32.3734 33.2397 32.3657 33.2332 32.3814 33.2382L31.7729 35.1434C32.1421 35.2613 32.5363 35.25 32.8828 35.25V33.25ZM30.9723 34.6896C31.2041 34.8934 31.4759 35.0485 31.7729 35.1434L32.3814 33.2382C32.3501 33.2282 32.3201 33.2115 32.293 33.1877L30.9723 34.6896ZM23.1176 22.75C23.3354 22.75 23.4563 22.7504 23.5466 22.7557C23.6256 22.7603 23.6331 22.7667 23.6179 22.7618L24.2263 20.8566C23.8572 20.7388 23.4646 20.75 23.1176 20.75V22.75ZM25.6898 22.2066C25.5111 21.9088 25.3184 21.5661 25.0275 21.3103L23.7069 22.8123C23.6948 22.8017 23.7043 22.805 23.7491 22.8705C23.8002 22.9454 23.8628 23.0489 23.9748 23.2356L25.6898 22.2066ZM23.6179 22.7618C23.6506 22.7723 23.6809 22.7894 23.7069 22.8123L25.0275 21.3103C24.7946 21.1055 24.5219 20.951 24.2263 20.8566L23.6179 22.7618ZM31.75 22.75L39.25 22.75V20.75L31.75 20.75V22.75Z" fill="white"/>
</svg>
